<!-- icon666.com - MILLIONS vector ICONS FREE --><svg id="Layer_1" enable-background="new 0 0 124 124" viewBox="0 0 124 124" xmlns="http://www.w3.org/2000/svg"><path d="m119.072 51.526h-9.117c-1.428-6.661-4.175-12.828-7.952-18.224l6.005-6.005c1.925-1.925 1.925-5.045 0-6.97l-6.089-6.089c-1.925-1.925-5.045-1.925-6.97 0l-6.115 6.115c-5.585-3.762-11.97-6.42-18.842-7.695v-7.73c.001-2.722-2.205-4.928-4.927-4.928h-8.611c-2.722 0-4.928 2.206-4.928 4.928v7.729c-7.122 1.322-13.716 4.138-19.445 8.12l-4.785-4.785c-1.925-1.925-5.045-1.925-6.97 0l-6.089 6.089c-1.925 1.925-1.925 5.045 0 6.97l4.852 4.852c-4.018 5.922-6.799 12.746-7.992 20.105h-6.17c-2.721-.001-4.927 2.205-4.927 4.927v8.611c0 2.722 2.206 4.928 4.928 4.928h6.582c1.526 7.295 4.628 14.012 8.94 19.772l-4.458 4.458c-1.925 1.925-1.925 5.045 0 6.97l6.089 6.089c1.925 1.925 5.045 1.925 6.97 0l5.001-5.001c5.934 3.725 12.699 6.241 19.955 7.215v7.096c0 2.722 2.206 4.928 4.928 4.928h8.611c2.722 0 4.928-2.206 4.928-4.928v-8.017c6.826-1.628 13.115-4.637 18.546-8.731l5.684 5.684c1.925 1.925 5.045 1.925 6.97 0l6.089-6.089c1.925-1.925 1.925-5.045 0-6.97l-6.267-6.267c3.484-5.592 5.904-11.914 6.969-18.689h8.608c2.722 0 4.928-2.206 4.928-4.928v-8.611c-.001-2.722-2.207-4.929-4.929-4.929z" fill="#cfdbe8"></path><g fill="#2f5572"><path d="m68.735 28.224c-11.286-2.275-22.872 1.245-30.992 9.418-12.225 12.303-13.26 31.66-3.12 45.168l-3.976-.182c-1.103-.043-2.039.804-2.089 1.907-.05 1.104.803 2.039 1.907 2.089l8.606.394c.03.001.061.002.091.002 1.088 0 2-.914 2-2v-9.056c0-1.104-.896-2-2-2s-2 .896-2 2v3.529c-8.254-11.892-7.12-28.425 3.419-39.031 7.17-7.216 17.402-10.325 27.363-8.316 1.086.217 2.138-.483 2.356-1.565.219-1.084-.482-2.139-1.565-2.357-11.286-2.275 1.083.218 0 0z"></path><path d="m86.21 37.498c-.166-.156-.349-.323-.523-.484l2.897.099c1.094.023 2.029-.827 2.067-1.931s-.826-2.029-1.931-2.067l-8.607-.295c-1.114-.035-2.068.885-2.068 1.999v8.958c0 1.104.896 2 2 2s2-.896 2-2v-4.667c.486.431.953.856 1.374 1.253 11.821 11.896 11.821 31.253 0 43.149-8.934 8.989-22.626 11.478-34.075 6.191-1.003-.464-2.191-.025-2.654.978s-.025 2.191.978 2.654c4.541 2.097 9.394 3.114 14.217 3.114 8.951 0 17.801-3.504 24.373-10.118 13.364-13.451 13.364-35.337-.048-48.833-.166-.157 13.412 13.496 0 0z"></path></g></svg>