<!-- icon666.com - MILLIONS vector ICONS FREE --><svg id="Layer_1" enable-background="new 0 0 124 124" viewBox="0 0 124 124" xmlns="http://www.w3.org/2000/svg"><path d="m112.743 44.193c7.023-7.01 9.497-16.734 7.276-25.205l-10.633 10.613c-3.41 3.403-8.74 3.6-11.906.44l-4.914-4.905c-3.166-3.16-2.969-8.481.441-11.884l10.633-10.613c-8.579-2.241-18.441.307-25.48 7.493-6.852 6.996-8.182 17.883-5.846 26.378l-58.82 58.711c-4.708 4.7-6.012 11.019-1.639 15.383 4.372 4.364 10.703 3.063 15.411-1.636l58.771-58.663c8.584 2.413 19.566 1.015 26.706-6.112z" fill="#9cabbd"></path><path d="m124 108.296-15.733 15.704-37.707-37.638-2.763-7.852-7.867-2.757-6.891-6.879 15.733-15.704 6.891 6.879 2.146 8.468 8.484 2.141z" fill="#cfdbe8"></path><path d="m19.907 11.032-3.055-7.528-8.582-3.504-8.27 8.223 4.161 7.949 7.476 3.082 45.622 45.408 8.237-8.223z" fill="#2f5572"></path><path d="m109.015 110.102c-.512 0-1.023-.195-1.414-.585l-26.915-26.899c-.781-.781-.782-2.047-.001-2.828.781-.782 2.047-.782 2.828-.001l26.915 26.898c1.228 1.227.334 3.415-1.413 3.415z" fill="#97cc75"></path></svg>