<?xml version="1.0" encoding="utf-8"?><svg xmlns="http://www.w3.org/2000/svg" xmlns:xlink="http://www.w3.org/1999/xlink"><symbol viewBox="0 0 24 24" id="arrow-down" xmlns="http://www.w3.org/2000/svg"><g clip-path="url(#aclip0_46_60)"><path fill-rule="evenodd" clip-rule="evenodd" d="M13.0599 16.0599C12.7787 16.3408 12.3974 16.4986 11.9999 16.4986C11.6024 16.4986 11.2212 16.3408 10.9399 16.0599L5.2819 10.4039C5.00064 10.1225 4.84268 9.74089 4.84277 9.34304C4.84287 8.94518 5.00101 8.56365 5.2824 8.28239C5.56379 8.00113 5.9454 7.84317 6.34325 7.84326C6.74111 7.84336 7.12264 8.00149 7.4039 8.28289L11.9999 12.8789L16.5959 8.28289C16.8787 8.00952 17.2575 7.85814 17.6508 7.86137C18.0441 7.8646 18.4204 8.02218 18.6986 8.30016C18.9769 8.57815 19.1348 8.95429 19.1384 9.34759C19.142 9.74088 18.991 10.1199 18.7179 10.4029L13.0609 16.0609L13.0599 16.0599Z"/></g><defs><clipPath id="aclip0_46_60"><rect width="24" height="24"/></clipPath></defs></symbol><symbol id="clock" enable-background="new 0 0 124 124" viewBox="0 0 124 124" xmlns="http://www.w3.org/2000/svg"><circle cx="62" cy="62" r="62"/><g><path d="m45.53 83.537c-1.665 0-2.598-2.019-1.528-3.289l15.998-18.978v-28.096c0-1.104.896-2 2-2s2 .896 2 2v28.826c0 .472-.167.928-.471 1.289l-16.468 19.537c-.396.469-.961.711-1.531.711z"/><path d="m64.067 0v14.37c0 1.141-.925 2.067-2.067 2.067s-2.067-.925-2.067-2.067v-14.37"/><path d="m0 59.933h14.37c1.141 0 2.067.925 2.067 2.067s-.925 2.067-2.067 2.067h-14.37"/><path d="m59.933 124v-14.37c0-1.141.925-2.067 2.067-2.067s2.067.925 2.067 2.067v14.37"/><path d="m124 64.067h-14.37c-1.141 0-2.067-.925-2.067-2.067s.925-2.067 2.067-2.067h14.37"/></g></symbol><symbol viewBox="0 0 24 24" id="close" xmlns="http://www.w3.org/2000/svg"><path fill-rule="evenodd" clip-rule="evenodd" d="M12.0001 14.1221L17.3031 19.4251C17.5845 19.7065 17.9661 19.8646 18.3641 19.8646C18.762 19.8646 19.1437 19.7065 19.4251 19.4251C19.7065 19.1437 19.8646 18.7621 19.8646 18.3641C19.8646 17.9662 19.7065 17.5845 19.4251 17.3031L14.1201 12.0001L19.4241 6.69711C19.5634 6.55778 19.6738 6.39238 19.7492 6.21036C19.8245 6.02834 19.8633 5.83326 19.8632 5.63626C19.8632 5.43926 19.8243 5.2442 19.7489 5.06221C19.6735 4.88022 19.5629 4.71488 19.4236 4.57561C19.2843 4.43634 19.1189 4.32588 18.9368 4.25054C18.7548 4.17519 18.5597 4.13644 18.3627 4.13648C18.1657 4.13653 17.9707 4.17538 17.7887 4.25081C17.6067 4.32624 17.4414 4.43678 17.3021 4.57611L12.0001 9.87911L6.69709 4.57611C6.55879 4.43278 6.39333 4.31843 6.21036 4.23973C6.02739 4.16103 5.83058 4.11956 5.63141 4.11774C5.43224 4.11591 5.23471 4.15377 5.05033 4.22911C4.86595 4.30444 4.69842 4.41574 4.55752 4.55652C4.41661 4.69729 4.30515 4.86471 4.22964 5.04902C4.15414 5.23333 4.11609 5.43083 4.11773 5.63C4.11936 5.82917 4.16065 6.02602 4.23917 6.20906C4.3177 6.3921 4.43189 6.55767 4.57509 6.69611L9.88009 12.0001L4.57609 17.3041C4.43289 17.4425 4.3187 17.6081 4.24017 17.7912C4.16165 17.9742 4.12036 18.1711 4.11873 18.3702C4.11709 18.5694 4.15514 18.7669 4.23064 18.9512C4.30615 19.1355 4.41761 19.3029 4.55852 19.4437C4.69942 19.5845 4.86695 19.6958 5.05133 19.7711C5.23571 19.8464 5.43324 19.8843 5.63241 19.8825C5.83158 19.8807 6.02839 19.8392 6.21136 19.7605C6.39433 19.6818 6.55979 19.5674 6.69809 19.4241L12.0001 14.1221Z"/></symbol><symbol viewBox="0 0 20 16" id="email" xmlns="http://www.w3.org/2000/svg"><path d="M2 16C1.45 16 0.979333 15.8043 0.588 15.413C0.196667 15.0217 0.000666667 14.5507 0 14V2C0 1.45 0.196 0.979333 0.588 0.588C0.98 0.196666 1.45067 0.000666667 2 0H18C18.55 0 19.021 0.196 19.413 0.588C19.805 0.98 20.0007 1.45067 20 2V14C20 14.55 19.8043 15.021 19.413 15.413C19.0217 15.805 18.5507 16.0007 18 16H2ZM10 9L18 4V2L10 7L2 2V4L10 9Z"/></symbol><symbol viewBox="0 0 24 25" id="heart" xmlns="http://www.w3.org/2000/svg"><path fill-rule="evenodd" clip-rule="evenodd" d="M12.6924 7.58373C12.3055 7.95505 11.6945 7.95505 11.3076 7.58373L10.6152 6.91927C9.80477 6.14154 8.70994 5.66667 7.5 5.66667C5.01472 5.66667 3 7.68139 3 10.1667C3 12.5493 4.28979 14.5167 6.15176 16.1332C8.01532 17.7511 10.2434 18.8241 11.5746 19.3717C11.853 19.4862 12.147 19.4862 12.4254 19.3717C13.7566 18.8241 15.9847 17.7511 17.8482 16.1332C19.7102 14.5167 21 12.5493 21 10.1667C21 7.68139 18.9853 5.66667 16.5 5.66667C15.2901 5.66667 14.1952 6.14154 13.3848 6.91927L12.6924 7.58373ZM12 5.47624C10.8321 4.35548 9.24649 3.66667 7.5 3.66667C3.91015 3.66667 1 6.57682 1 10.1667C1 16.5349 7.97034 20.0517 10.8138 21.2214C11.5796 21.5364 12.4204 21.5364 13.1862 21.2214C16.0297 20.0517 23 16.5349 23 10.1667C23 6.57682 20.0899 3.66667 16.5 3.66667C14.7535 3.66667 13.1679 4.35548 12 5.47624Z"/></symbol><symbol viewBox="0 0 24 24" id="heart-line" xmlns="http://www.w3.org/2000/svg"><path d="M12.001 4.52853C14.35 2.42 17.98 2.49 20.2426 4.75736C22.5053 7.02472 22.583 10.637 20.4786 12.993L11.9999 21.485L3.52138 12.993C1.41705 10.637 1.49571 7.01901 3.75736 4.75736C6.02157 2.49315 9.64519 2.41687 12.001 4.52853ZM18.827 6.1701C17.3279 4.66794 14.9076 4.60701 13.337 6.01687L12.0019 7.21524L10.6661 6.01781C9.09098 4.60597 6.67506 4.66808 5.17157 6.17157C3.68183 7.66131 3.60704 10.0473 4.97993 11.6232L11.9999 18.6543L19.0201 11.6232C20.3935 10.0467 20.319 7.66525 18.827 6.1701Z"/></symbol><symbol viewBox="0 0 24 24" id="id-card-line" xmlns="http://www.w3.org/2000/svg"><path d="M3 6H21V18H3V6ZM2 4C1.44772 4 1 4.44772 1 5V19C1 19.5523 1.44772 20 2 20H22C22.5523 20 23 19.5523 23 19V5C23 4.44772 22.5523 4 22 4H2ZM13 8H19V10H13V8ZM18 12H13V14H18V12ZM10.5 10C10.5 11.3807 9.38071 12.5 8 12.5C6.61929 12.5 5.5 11.3807 5.5 10C5.5 8.61929 6.61929 7.5 8 7.5C9.38071 7.5 10.5 8.61929 10.5 10ZM8 13.5C6.067 13.5 4.5 15.067 4.5 17H11.5C11.5 15.067 9.933 13.5 8 13.5Z"/></symbol><symbol viewBox="0 0 24 24" id="location" xmlns="http://www.w3.org/2000/svg"><path d="M12 11.5C11.337 11.5 10.7011 11.2366 10.2322 10.7678C9.76339 10.2989 9.5 9.66304 9.5 9C9.5 8.33696 9.76339 7.70107 10.2322 7.23223C10.7011 6.76339 11.337 6.5 12 6.5C12.663 6.5 13.2989 6.76339 13.7678 7.23223C14.2366 7.70107 14.5 8.33696 14.5 9C14.5 9.3283 14.4353 9.65339 14.3097 9.95671C14.1841 10.26 13.9999 10.5356 13.7678 10.7678C13.5356 10.9999 13.26 11.1841 12.9567 11.3097C12.6534 11.4353 12.3283 11.5 12 11.5ZM12 2C10.1435 2 8.36301 2.7375 7.05025 4.05025C5.7375 5.36301 5 7.14348 5 9C5 14.25 12 22 12 22C12 22 19 14.25 19 9C19 7.14348 18.2625 5.36301 16.9497 4.05025C15.637 2.7375 13.8565 2 12 2Z"/></symbol><symbol viewBox="0 0 17 17" id="phone" xmlns="http://www.w3.org/2000/svg"><path d="M2.515 1.621L5 1L7 4.5L5.5 6C6.5 8 9 10.5 11 11.5L12.5 10L16 12L15.379 14.485C15.156 15.375 14.35 16.019 13.451 15.836C8.238 14.776 2.223 8.762 1.164 3.549C0.980996 2.649 1.625 1.844 2.515 1.621Z" stroke-width="2" stroke-linecap="round" stroke-linejoin="round"/></symbol><symbol id="quality" enable-background="new 0 0 124 124" viewBox="0 0 124 124" xmlns="http://www.w3.org/2000/svg"><path d="m119.072 51.526h-9.117c-1.428-6.661-4.175-12.828-7.952-18.224l6.005-6.005c1.925-1.925 1.925-5.045 0-6.97l-6.089-6.089c-1.925-1.925-5.045-1.925-6.97 0l-6.115 6.115c-5.585-3.762-11.97-6.42-18.842-7.695v-7.73c.001-2.722-2.205-4.928-4.927-4.928h-8.611c-2.722 0-4.928 2.206-4.928 4.928v7.729c-7.122 1.322-13.716 4.138-19.445 8.12l-4.785-4.785c-1.925-1.925-5.045-1.925-6.97 0l-6.089 6.089c-1.925 1.925-1.925 5.045 0 6.97l4.852 4.852c-4.018 5.922-6.799 12.746-7.992 20.105h-6.17c-2.721-.001-4.927 2.205-4.927 4.927v8.611c0 2.722 2.206 4.928 4.928 4.928h6.582c1.526 7.295 4.628 14.012 8.94 19.772l-4.458 4.458c-1.925 1.925-1.925 5.045 0 6.97l6.089 6.089c1.925 1.925 5.045 1.925 6.97 0l5.001-5.001c5.934 3.725 12.699 6.241 19.955 7.215v7.096c0 2.722 2.206 4.928 4.928 4.928h8.611c2.722 0 4.928-2.206 4.928-4.928v-8.017c6.826-1.628 13.115-4.637 18.546-8.731l5.684 5.684c1.925 1.925 5.045 1.925 6.97 0l6.089-6.089c1.925-1.925 1.925-5.045 0-6.97l-6.267-6.267c3.484-5.592 5.904-11.914 6.969-18.689h8.608c2.722 0 4.928-2.206 4.928-4.928v-8.611c-.001-2.722-2.207-4.929-4.929-4.929z"/><g><path d="m68.735 28.224c-11.286-2.275-22.872 1.245-30.992 9.418-12.225 12.303-13.26 31.66-3.12 45.168l-3.976-.182c-1.103-.043-2.039.804-2.089 1.907-.05 1.104.803 2.039 1.907 2.089l8.606.394c.03.001.061.002.091.002 1.088 0 2-.914 2-2v-9.056c0-1.104-.896-2-2-2s-2 .896-2 2v3.529c-8.254-11.892-7.12-28.425 3.419-39.031 7.17-7.216 17.402-10.325 27.363-8.316 1.086.217 2.138-.483 2.356-1.565.219-1.084-.482-2.139-1.565-2.357-11.286-2.275 1.083.218 0 0z"/><path d="m86.21 37.498c-.166-.156-.349-.323-.523-.484l2.897.099c1.094.023 2.029-.827 2.067-1.931s-.826-2.029-1.931-2.067l-8.607-.295c-1.114-.035-2.068.885-2.068 1.999v8.958c0 1.104.896 2 2 2s2-.896 2-2v-4.667c.486.431.953.856 1.374 1.253 11.821 11.896 11.821 31.253 0 43.149-8.934 8.989-22.626 11.478-34.075 6.191-1.003-.464-2.191-.025-2.654.978s-.025 2.191.978 2.654c4.541 2.097 9.394 3.114 14.217 3.114 8.951 0 17.801-3.504 24.373-10.118 13.364-13.451 13.364-35.337-.048-48.833-.166-.157 13.412 13.496 0 0z"/></g></symbol><symbol viewBox="0 0 24 24" id="search" xmlns="http://www.w3.org/2000/svg"><path d="M18.5 18.5L22 22M21 11.5C21 6.25329 16.7467 2 11.5 2C6.25329 2 2 6.25329 2 11.5C2 16.7467 6.25329 21 11.5 21C16.7467 21 21 16.7467 21 11.5Z" stroke-width="1.5" stroke-linecap="round" stroke-linejoin="round"/></symbol><symbol viewBox="0 0 24 24" id="search-line" xmlns="http://www.w3.org/2000/svg"><path d="M18.031 16.6168L22.3137 20.8995L20.8995 22.3137L16.6168 18.031C15.0769 19.263 13.124 20 11 20C6.032 20 2 15.968 2 11C2 6.032 6.032 2 11 2C15.968 2 20 6.032 20 11C20 13.124 19.263 15.0769 18.031 16.6168ZM16.0247 15.8748C17.2475 14.6146 18 12.8956 18 11C18 7.1325 14.8675 4 11 4C7.1325 4 4 7.1325 4 11C4 14.8675 7.1325 18 11 18C12.8956 18 14.6146 17.2475 15.8748 16.0247L16.0247 15.8748Z"/></symbol><symbol viewBox="0 0 512 512" id="shield" xmlns="http://www.w3.org/2000/svg"><ellipse cx="256" cy="228.5" rx="152" ry="147.5"/><g clip-path="url(#mclip0_60_14)"><path d="M256.426 158.895C215.051 158.895 181.391 192.555 181.391 233.93C181.391 275.305 215.051 308.965 256.426 308.965C297.801 308.965 331.461 275.305 331.461 233.93C331.461 192.555 297.801 158.895 256.426 158.895ZM256.426 278.961C231.598 278.961 211.395 258.762 211.395 233.93C211.395 209.102 231.598 188.898 256.426 188.898C281.258 188.898 301.457 209.102 301.457 233.93C301.457 258.762 281.258 278.961 256.426 278.961Z"/><path d="M256.426 218.902C248.141 218.902 241.398 225.645 241.398 233.93C241.398 242.215 248.141 248.957 256.426 248.957C264.711 248.957 271.453 242.215 271.453 233.93C271.453 225.645 264.711 218.902 256.426 218.902Z"/><path d="M146.167 440.836L146.166 440.836C115.277 411.705 90.6691 376.566 73.026 336.373C51.1469 286.526 40 228.741 40 164.562V86.4551L256.426 3.28519L472.852 86.4551V164.562C472.852 228.741 461.705 286.526 439.826 336.373C422.182 376.566 397.571 411.705 366.685 440.836L369.43 443.746L366.685 440.836C313.931 490.599 261.343 505.494 259.352 506.046C259.35 506.047 259.348 506.047 259.346 506.048L256.426 506.851L253.504 506.047C251.602 505.521 198.966 490.645 146.167 440.836ZM361.817 317.106L364.645 314.278L361.817 311.449L345.761 295.389C354.704 282.632 360.986 267.873 363.801 251.934H386.469H390.469V247.934V217.926V213.926H386.469H363.801C360.987 197.986 354.707 183.228 345.761 170.47L361.817 154.41L364.645 151.582L361.817 148.754L340.602 127.539L337.774 124.711L334.945 127.538L318.885 143.595C306.128 134.652 291.37 128.369 275.43 125.555V102.887V98.8867H271.43H241.426H237.426V102.887V125.555C221.483 128.369 206.724 134.652 193.966 143.595L177.906 127.538L175.078 124.711L172.25 127.539L151.035 148.754L148.207 151.582L151.035 154.41L167.091 170.47C158.148 183.228 151.865 197.986 149.051 213.926H126.383H122.383V217.926V247.934V251.934H126.383H149.051C151.865 267.873 158.148 282.632 167.091 295.389L151.035 311.449L148.207 314.278L151.035 317.106L172.25 338.321L175.078 341.149L177.906 338.321L193.966 322.264C206.724 331.208 221.483 337.49 237.426 340.305V362.973V366.973H241.426H271.43H275.43V362.973V340.305C291.37 337.49 306.128 331.208 318.885 322.264L334.945 338.321L337.774 341.149L340.602 338.321L361.817 317.106Z" stroke-width="8"/></g><defs><clipPath id="mclip0_60_14"><rect width="512" height="512.001"/></clipPath></defs></symbol><symbol id="tools" enable-background="new 0 0 124 124" viewBox="0 0 124 124" xmlns="http://www.w3.org/2000/svg"><path d="m112.743 44.193c7.023-7.01 9.497-16.734 7.276-25.205l-10.633 10.613c-3.41 3.403-8.74 3.6-11.906.44l-4.914-4.905c-3.166-3.16-2.969-8.481.441-11.884l10.633-10.613c-8.579-2.241-18.441.307-25.48 7.493-6.852 6.996-8.182 17.883-5.846 26.378l-58.82 58.711c-4.708 4.7-6.012 11.019-1.639 15.383 4.372 4.364 10.703 3.063 15.411-1.636l58.771-58.663c8.584 2.413 19.566 1.015 26.706-6.112z"/><path d="m124 108.296-15.733 15.704-37.707-37.638-2.763-7.852-7.867-2.757-6.891-6.879 15.733-15.704 6.891 6.879 2.146 8.468 8.484 2.141z"/><path d="m19.907 11.032-3.055-7.528-8.582-3.504-8.27 8.223 4.161 7.949 7.476 3.082 45.622 45.408 8.237-8.223z"/><path d="m109.015 110.102c-.512 0-1.023-.195-1.414-.585l-26.915-26.899c-.781-.781-.782-2.047-.001-2.828.781-.782 2.047-.782 2.828-.001l26.915 26.898c1.228 1.227.334 3.415-1.413 3.415z"/></symbol><symbol viewBox="0 0 24 24" id="user" xmlns="http://www.w3.org/2000/svg"><path d="M18.5588 19.5488C17.5654 16.8918 15.0036 15 12 15C8.99638 15 6.4346 16.8918 5.44117 19.5488M18.5588 19.5488C20.6672 17.7154 22 15.0134 22 12C22 6.47715 17.5228 2 12 2C6.47715 2 2 6.47715 2 12C2 15.0134 3.33285 17.7154 5.44117 19.5488M18.5588 19.5488C16.8031 21.0756 14.5095 22 12 22C9.49052 22 7.19694 21.0756 5.44117 19.5488M15 9C15 10.6569 13.6569 12 12 12C10.3431 12 9 10.6569 9 9C9 7.34315 10.3431 6 12 6C13.6569 6 15 7.34315 15 9Z" stroke-width="1.5" stroke-linejoin="round"/></symbol><symbol viewBox="0 0 24 24" id="user-star-line" xmlns="http://www.w3.org/2000/svg"><path d="M12 14V16C8.68629 16 6 18.6863 6 22H4C4 17.5817 7.58172 14 12 14ZM12 13C8.685 13 6 10.315 6 7C6 3.685 8.685 1 12 1C15.315 1 18 3.685 18 7C18 10.315 15.315 13 12 13ZM12 11C14.21 11 16 9.21 16 7C16 4.79 14.21 3 12 3C9.79 3 8 4.79 8 7C8 9.21 9.79 11 12 11ZM18 21.5L15.0611 23.0451L15.6224 19.7725L13.2447 17.4549L16.5305 16.9775L18 14L19.4695 16.9775L22.7553 17.4549L20.3776 19.7725L20.9389 23.0451L18 21.5Z"/></symbol><symbol id="website" enable-background="new 0 0 497 497" viewBox="0 0 497 497" xmlns="http://www.w3.org/2000/svg"><g><path d="m497 128.5v312c0 11.046-8.954 20-20 20h-457c-11.046 0-20-8.954-20-20v-312z"/><g><path d="m290.498 294.5c0-23.196-18.804-42-42-42-7.031 0-13.659 1.728-19.482 4.782-13.386 7.021-19.327 21.053-19.327 37.218 0 23.196 15.613 36.457 38.809 36.457 16.214 0 30.282-3.645 37.282-17.099 3.014-5.792 4.718-12.376 4.718-19.358z"/><path d="m286.468 312.47c-6.73 14.21-21.2 24.03-37.97 24.03-23.2 0-42-18.8-42-42 0-16.77 9.82-31.24 24.03-37.97-2.59 5.45-4.03 11.54-4.03 17.97 0 23.2 18.8 42 42 42 6.43 0 12.52-1.44 17.97-4.03z"/></g><g><path d="m429.496 294.5c0-23.196-18.804-42-42-42-7.031 0-13.659 1.728-19.482 4.782-13.386 7.021-19.327 21.053-19.327 37.218 0 23.196 15.613 36.457 38.809 36.457 16.214 0 30.282-3.645 37.282-17.099 3.014-5.792 4.718-12.376 4.718-19.358z"/><path d="m425.466 312.47c-6.73 14.21-21.2 24.03-37.97 24.03-23.2 0-42-18.8-42-42 0-16.77 9.82-31.24 24.03-37.97-2.59 5.45-4.03 11.54-4.03 17.97 0 23.2 18.8 42 42 42 6.43 0 12.52-1.44 17.97-4.03z"/></g><path d="m497 148.5v-20l-276.011-12.798-220.989 12.798v20 292c0 11.046 8.954 20 20 20h15c-8.28 0-15-6.72-15-15v-291c0-3.314 2.686-6 6-6z"/><g><path d="m497 56.5v72.5h-497v-72.5c0-11.046 8.954-20 20-20h457c11.046 0 20 8.954 20 20z"/><g><path d="m227.758 108.5c-8.255 0-14.947-6.716-14.947-15s6.692-15 14.947-15h208.315c8.255 0 14.947 6.716 14.947 15s-6.692 15-14.947 15z"/><ellipse cx="160.869" cy="93.5" rx="14.947" ry="15"/><path d="m171.361 104.184 12.874-12.869-13.139 1.179z"/><path d="m150.592 82.608 12.562-12.516-2.693 10.408z"/><ellipse cx="98.034" cy="93.5" rx="14.947" ry="15"/><path d="m108.553 104.157 12.382-12.499-12.674.836z"/><path d="m87.757 82.608 12.371-12.459-2.502 10.351z"/><ellipse cx="32.947" cy="93.5" rx="14.947" ry="15"/><path d="m43.769 103.846 12.721-13.186-13.139 1.381z"/><path d="m22.67 82.608 11.622-12.038-1.753 9.93z"/></g><ellipse cx="173.849" cy="80.5" rx="14.947" ry="15"/><path d="m217.514 82.577 12.971-12.991-3.025 14.276z"/><path d="m446.83 103.915 13.149-13.179-10.185 3.381z"/><ellipse cx="110.946" cy="80.5" rx="14.947" ry="15"/><ellipse cx="45.495" cy="80.5" rx="14.947" ry="15"/><path d="m240.737 95.5c-8.255 0-14.947-6.716-14.947-15s6.692-15 14.947-15h208.315c8.255 0 14.947 6.716 14.947 15s-6.692 15-14.947 15z"/></g><path d="m135.893 215 226.628 2c5.523 0 10-4.477 10-10l3.479-7v-30c0-5.523-4.477-10-10-10h-224l-6.107 5c-5.523 0-10 4.477-10 10v30c0 5.523 4.477 10 10 10z"/><path d="m376 200v10c0 5.523-4.477 10-10 10h-234c-5.523 0-10-4.477-10-10v-40c0-5.523 4.477-10 10-10h10v33c0 3.866 3.134 7 7 7z"/><g><path d="m151.5 294.5c0-23.196-18.804-42-42-42-7.031 0-13.659 1.728-19.482 4.782-13.386 7.021-19.327 21.053-19.327 37.218 0 23.196 15.613 36.457 38.809 36.457 16.214 0 30.282-3.645 37.282-17.099 3.014-5.792 4.718-12.376 4.718-19.358z"/><path d="m147.47 312.47c-6.73 14.21-21.2 24.03-37.97 24.03-23.2 0-42-18.8-42-42 0-16.77 9.82-31.24 24.03-37.97-2.59 5.45-4.03 11.54-4.03 17.97 0 23.2 18.8 42 42 42 6.43 0 12.52-1.44 17.97-4.03z"/></g><g><g><path d="m149.5 374h-70c-4.142 0-7.5-3.358-7.5-7.5s3.358-7.5 7.5-7.5h70c4.142 0 7.5 3.358 7.5 7.5s-3.358 7.5-7.5 7.5z"/></g><g><path d="m149.5 404h-80c-4.142 0-7.5-3.358-7.5-7.5s3.358-7.5 7.5-7.5h80c4.142 0 7.5 3.358 7.5 7.5s-3.358 7.5-7.5 7.5z"/></g><g><path d="m149.5 434h-80c-4.142 0-7.5-3.358-7.5-7.5s3.358-7.5 7.5-7.5h80c4.142 0 7.5 3.358 7.5 7.5s-3.358 7.5-7.5 7.5z"/></g></g><g><g><path d="m288.5 374h-70c-4.142 0-7.5-3.358-7.5-7.5s3.358-7.5 7.5-7.5h70c4.143 0 7.5 3.358 7.5 7.5s-3.357 7.5-7.5 7.5z"/></g><g><path d="m288.5 404h-80c-4.142 0-7.5-3.358-7.5-7.5s3.358-7.5 7.5-7.5h80c4.143 0 7.5 3.358 7.5 7.5s-3.357 7.5-7.5 7.5z"/></g><g><path d="m288.5 434h-80c-4.142 0-7.5-3.358-7.5-7.5s3.358-7.5 7.5-7.5h80c4.143 0 7.5 3.358 7.5 7.5s-3.357 7.5-7.5 7.5z"/></g></g><g><g><path d="m427.5 374h-70c-4.143 0-7.5-3.358-7.5-7.5s3.357-7.5 7.5-7.5h70c4.143 0 7.5 3.358 7.5 7.5s-3.357 7.5-7.5 7.5z"/></g><g><path d="m427.5 404h-80c-4.143 0-7.5-3.358-7.5-7.5s3.357-7.5 7.5-7.5h80c4.143 0 7.5 3.358 7.5 7.5s-3.357 7.5-7.5 7.5z"/></g><g><path d="m427.5 434h-80c-4.143 0-7.5-3.358-7.5-7.5s3.357-7.5 7.5-7.5h80c4.143 0 7.5 3.358 7.5 7.5s-3.357 7.5-7.5 7.5z"/></g></g></g></symbol></svg>