<?xml version="1.0" encoding="utf-8"?><svg viewBox="0 0 512 512" xmlns="http://www.w3.org/2000/svg" xmlns:xlink="http://www.w3.org/1999/xlink"><style>:root>svg{display:none}:root>svg:target{display:block}</style><svg fill="none" viewBox="0 0 24 24" id="arrow-down" xmlns="http://www.w3.org/2000/svg"><g clip-path="url(#aa)"><path fill-rule="evenodd" clip-rule="evenodd" d="M13.06 16.06a1.5 1.5 0 0 1-2.12 0l-5.658-5.656a1.5 1.5 0 0 1 2.122-2.121L12 12.879l4.596-4.596a1.5 1.5 0 0 1 2.122 2.12L13.06 16.06l-.001-.001Z" fill="#333"/></g><defs><clipPath id="aa"><path fill="#fff" d="M0 0h24v24H0z"/></clipPath></defs></svg><svg viewBox="0 0 124 124" id="clock" xmlns="http://www.w3.org/2000/svg"><circle cx="62" cy="62" fill="#cfdbe8" r="62"/><g fill="#2f5572"><path d="M45.53 83.537c-1.665 0-2.598-2.019-1.528-3.289L60 61.27V33.174a2 2 0 0 1 4 0V62a2 2 0 0 1-.471 1.289L47.061 82.826a1.998 1.998 0 0 1-1.531.711zM64.067 0v14.37a2.067 2.067 0 0 1-4.134 0V0M0 59.933h14.37a2.067 2.067 0 0 1 0 4.134H0M59.933 124v-14.37a2.067 2.067 0 0 1 4.134 0V124M124 64.067h-14.37a2.067 2.067 0 0 1 0-4.134H124"/></g></svg><svg fill="none" viewBox="0 0 24 24" id="close" xmlns="http://www.w3.org/2000/svg"><path fill-rule="evenodd" clip-rule="evenodd" d="m12 14.122 5.303 5.303a1.5 1.5 0 1 0 2.122-2.122L14.12 12l5.304-5.303a1.5 1.5 0 0 0-2.122-2.12L12 9.878 6.697 4.576a1.5 1.5 0 1 0-2.122 2.12L9.88 12l-5.304 5.304a1.5 1.5 0 1 0 2.122 2.12L12 14.122Z" fill="#333"/></svg><svg fill="none" viewBox="0 0 20 16" id="email" xmlns="http://www.w3.org/2000/svg"><path d="M2 16c-.55 0-1.02-.196-1.412-.587A1.93 1.93 0 0 1 0 14V2C0 1.45.196.98.588.588A1.93 1.93 0 0 1 2 0h16c.55 0 1.021.196 1.413.588.392.392.588.863.587 1.412v12c0 .55-.196 1.021-.587 1.413A1.92 1.92 0 0 1 18 16H2Zm8-7 8-5V2l-8 5-8-5v2l8 5Z" fill="#333"/></svg><svg fill="none" viewBox="0 0 24 25" id="heart" xmlns="http://www.w3.org/2000/svg"><path fill-rule="evenodd" clip-rule="evenodd" d="M12.692 7.584a1 1 0 0 1-1.384 0l-.693-.665A4.5 4.5 0 0 0 3 10.166c0 2.383 1.29 4.35 3.152 5.967 1.863 1.618 4.091 2.691 5.423 3.239.278.114.572.114.85 0 1.332-.548 3.56-1.62 5.423-3.239C19.71 14.517 21 12.55 21 10.167a4.5 4.5 0 0 0-7.615-3.248l-.693.665ZM12 5.476a6.5 6.5 0 0 0-11 4.69c0 6.369 6.97 9.886 9.814 11.055a3.096 3.096 0 0 0 2.372 0C16.03 20.051 23 16.535 23 10.167a6.5 6.5 0 0 0-11-4.69Z" fill="#141718"/></svg><svg fill="none" viewBox="0 0 24 24" id="heart-line" xmlns="http://www.w3.org/2000/svg"><path d="M12.001 4.529a5.998 5.998 0 0 1 8.242.228 6 6 0 0 1 .236 8.236l-8.48 8.492-8.478-8.492a6 6 0 0 1 8.48-8.464Zm6.826 1.641a3.998 3.998 0 0 0-5.49-.153l-1.335 1.198-1.336-1.197a4 4 0 0 0-5.686 5.605L12 18.654l7.02-7.03a4 4 0 0 0-.193-5.454Z" fill="#000"/></svg><svg fill="none" viewBox="0 0 24 24" id="id-card-line" xmlns="http://www.w3.org/2000/svg"><path d="M3 6h18v12H3V6ZM2 4a1 1 0 0 0-1 1v14a1 1 0 0 0 1 1h20a1 1 0 0 0 1-1V5a1 1 0 0 0-1-1H2Zm11 4h6v2h-6V8Zm5 4h-5v2h5v-2Zm-7.5-2a2.5 2.5 0 1 1-5 0 2.5 2.5 0 0 1 5 0ZM8 13.5A3.5 3.5 0 0 0 4.5 17h7A3.5 3.5 0 0 0 8 13.5Z" fill="#000"/></svg><svg fill="none" viewBox="0 0 24 24" id="location" xmlns="http://www.w3.org/2000/svg"><path d="M12 11.5a2.5 2.5 0 1 1 0-5 2.5 2.5 0 0 1 0 5ZM12 2a7 7 0 0 0-7 7c0 5.25 7 13 7 13s7-7.75 7-13a7 7 0 0 0-7-7Z" fill="#fff"/></svg><svg fill="none" viewBox="0 0 17 17" id="phone" xmlns="http://www.w3.org/2000/svg"><path d="M2.515 1.621 5 1l2 3.5L5.5 6c1 2 3.5 4.5 5.5 5.5l1.5-1.5 3.5 2-.621 2.485c-.223.89-1.029 1.534-1.928 1.351C8.238 14.776 2.223 8.762 1.164 3.549c-.183-.9.461-1.705 1.351-1.928Z" stroke="#000" stroke-width="2" stroke-linecap="round" stroke-linejoin="round"/></svg><svg viewBox="0 0 124 124" id="quality" xmlns="http://www.w3.org/2000/svg"><path d="M119.072 51.526h-9.117a50.059 50.059 0 0 0-7.952-18.224l6.005-6.005a4.928 4.928 0 0 0 0-6.97l-6.089-6.089a4.928 4.928 0 0 0-6.97 0l-6.115 6.115a50.027 50.027 0 0 0-18.842-7.695v-7.73A4.926 4.926 0 0 0 65.065 0h-8.611a4.928 4.928 0 0 0-4.928 4.928v7.729a50.037 50.037 0 0 0-19.445 8.12l-4.785-4.785a4.928 4.928 0 0 0-6.97 0l-6.089 6.089a4.928 4.928 0 0 0 0 6.97l4.852 4.852a50.025 50.025 0 0 0-7.992 20.105h-6.17A4.926 4.926 0 0 0 0 58.935v8.611a4.928 4.928 0 0 0 4.928 4.928h6.582a50.087 50.087 0 0 0 8.94 19.772l-4.458 4.458a4.928 4.928 0 0 0 0 6.97l6.089 6.089a4.928 4.928 0 0 0 6.97 0l5.001-5.001a49.99 49.99 0 0 0 19.955 7.215v7.096a4.928 4.928 0 0 0 4.928 4.928h8.611a4.928 4.928 0 0 0 4.928-4.928v-8.017a50.1 50.1 0 0 0 18.546-8.731l5.684 5.684a4.928 4.928 0 0 0 6.97 0l6.089-6.089a4.928 4.928 0 0 0 0-6.97l-6.267-6.267a49.983 49.983 0 0 0 6.969-18.689h8.608a4.928 4.928 0 0 0 4.928-4.928v-8.611a4.93 4.93 0 0 0-4.929-4.929z" fill="#cfdbe8"/><g fill="#2f5572"><path d="M68.735 28.224a34.082 34.082 0 0 0-30.992 9.418c-12.225 12.303-13.26 31.66-3.12 45.168l-3.976-.182a2 2 0 1 0-.182 3.996l8.606.394.091.002c1.088 0 2-.914 2-2v-9.056a2 2 0 0 0-4 0v3.529c-8.254-11.892-7.12-28.425 3.419-39.031a30.094 30.094 0 0 1 27.363-8.316 2 2 0 1 0 .791-3.922c-11.286-2.275 1.083.218 0 0zM86.21 37.498c-.166-.156-.349-.323-.523-.484l2.897.099c1.094.023 2.029-.827 2.067-1.931a2 2 0 0 0-1.931-2.067l-8.607-.295c-1.114-.035-2.068.885-2.068 1.999v8.958a2 2 0 0 0 4 0V39.11c.486.431.953.856 1.374 1.253 11.821 11.896 11.821 31.253 0 43.149-8.934 8.989-22.626 11.478-34.075 6.191a1.999 1.999 0 1 0-1.676 3.632 33.875 33.875 0 0 0 14.217 3.114c8.951 0 17.801-3.504 24.373-10.118 13.364-13.451 13.364-35.337-.048-48.833-.166-.157 13.412 13.496 0 0z"/></g></svg><svg fill="none" viewBox="0 0 24 24" id="search" xmlns="http://www.w3.org/2000/svg"><path d="M18.5 18.5 22 22m-1-10.5a9.5 9.5 0 1 0-19 0 9.5 9.5 0 0 0 19 0Z" stroke="#141718" stroke-width="1.5" stroke-linecap="round" stroke-linejoin="round"/></svg><svg fill="none" viewBox="0 0 24 24" id="search-line" xmlns="http://www.w3.org/2000/svg"><path d="m18.031 16.617 4.283 4.282-1.415 1.415-4.282-4.283A8.96 8.96 0 0 1 11 20c-4.968 0-9-4.032-9-9s4.032-9 9-9 9 4.032 9 9a8.96 8.96 0 0 1-1.969 5.617Zm-2.006-.742A6.977 6.977 0 0 0 18 11c0-3.867-3.133-7-7-7s-7 3.133-7 7 3.133 7 7 7a6.977 6.977 0 0 0 4.875-1.975l.15-.15Z" fill="#000"/></svg><svg fill="none" viewBox="0 0 512 512" id="shield" xmlns="http://www.w3.org/2000/svg"><ellipse cx="256" cy="228.5" rx="152" ry="147.5" fill="#2F5572"/><g clip-path="url(#ma)" fill="#CFDBE8"><path d="M256.426 158.895c-41.375 0-75.035 33.66-75.035 75.035s33.66 75.035 75.035 75.035 75.035-33.66 75.035-75.035-33.66-75.035-75.035-75.035Zm0 120.066c-24.828 0-45.031-20.199-45.031-45.031 0-24.828 20.203-45.032 45.031-45.032 24.832 0 45.031 20.204 45.031 45.032 0 24.832-20.199 45.031-45.031 45.031Z"/><path d="M256.426 218.902c-8.285 0-15.028 6.743-15.028 15.028s6.743 15.027 15.028 15.027 15.027-6.742 15.027-15.027-6.742-15.028-15.027-15.028Z"/><path d="M146.167 440.836h-.001c-30.889-29.131-55.497-64.27-73.14-104.463C51.146 286.526 40 228.741 40 164.562V86.455l216.426-83.17 216.426 83.17v78.107c0 64.179-11.147 121.964-33.026 171.811-17.644 40.193-42.255 75.332-73.141 104.463l2.745 2.91-2.745-2.91c-52.754 49.763-105.342 64.658-107.333 65.21l-.006.002-2.92.803-2.922-.804c-1.902-.526-54.538-15.402-107.337-65.211Zm215.65-123.73 2.828-2.828-2.828-2.829-16.056-16.06a108.542 108.542 0 0 0 18.04-43.455h26.668V213.926h-26.668a108.49 108.49 0 0 0-18.04-43.456l16.056-16.06 2.828-2.828-2.828-2.828-21.215-21.215-2.828-2.828-2.829 2.827-16.06 16.057a108.522 108.522 0 0 0-43.455-18.04V98.887H237.426v26.668a108.531 108.531 0 0 0-43.46 18.04l-16.06-16.057-2.828-2.827-2.828 2.828-21.215 21.215-2.828 2.828 2.828 2.828 16.056 16.06c-8.943 12.758-15.226 27.516-18.04 43.456h-26.668V251.934h26.668a108.528 108.528 0 0 0 18.04 43.455l-16.056 16.06-2.828 2.829 2.828 2.828 21.215 21.215 2.828 2.828 2.828-2.828 16.06-16.057a108.533 108.533 0 0 0 43.46 18.041v26.668H275.43v-26.668a108.524 108.524 0 0 0 43.455-18.041l16.06 16.057 2.829 2.828 2.828-2.828 21.215-21.215Z" stroke="#2F5572" stroke-width="8"/></g><defs><clipPath id="ma"><path fill="#fff" d="M0 0h512v512.001H0z"/></clipPath></defs></svg><svg viewBox="0 0 124 124" id="tools" xmlns="http://www.w3.org/2000/svg"><path d="M112.743 44.193c7.023-7.01 9.497-16.734 7.276-25.205l-10.633 10.613c-3.41 3.403-8.74 3.6-11.906.44l-4.914-4.905c-3.166-3.16-2.969-8.481.441-11.884L103.64 2.639c-8.579-2.241-18.441.307-25.48 7.493-6.852 6.996-8.182 17.883-5.846 26.378l-58.82 58.711c-4.708 4.7-6.012 11.019-1.639 15.383 4.372 4.364 10.703 3.063 15.411-1.636l58.771-58.663c8.584 2.413 19.566 1.015 26.706-6.112z" fill="#9cabbd"/><path d="M124 108.296 108.267 124 70.56 86.362l-2.763-7.852-7.867-2.757-6.891-6.879L68.772 53.17l6.891 6.879 2.146 8.468 8.484 2.141z" fill="#cfdbe8"/><path d="m19.907 11.032-3.055-7.528L8.27 0 0 8.223l4.161 7.949 7.476 3.082 45.622 45.408 8.237-8.223z" fill="#2f5572"/><path d="M109.015 110.102a1.995 1.995 0 0 1-1.414-.585L80.686 82.618a2 2 0 1 1 2.827-2.829l26.915 26.898c1.228 1.227.334 3.415-1.413 3.415z" fill="#97cc75"/></svg><svg fill="none" viewBox="0 0 24 24" id="user" xmlns="http://www.w3.org/2000/svg"><path d="M18.559 19.549a7.003 7.003 0 0 0-13.118 0m13.118 0A9.976 9.976 0 0 0 22 12c0-5.523-4.477-10-10-10S2 6.477 2 12a9.977 9.977 0 0 0 3.441 7.549m13.118 0A9.961 9.961 0 0 1 12 22a9.961 9.961 0 0 1-6.559-2.451M15 9a3 3 0 1 1-6 0 3 3 0 0 1 6 0Z" stroke="#141718" stroke-width="1.5" stroke-linejoin="round"/></svg><svg fill="none" viewBox="0 0 24 24" id="user-star-line" xmlns="http://www.w3.org/2000/svg"><path d="M12 14v2a6 6 0 0 0-6 6H4a8 8 0 0 1 8-8Zm0-1c-3.315 0-6-2.685-6-6s2.685-6 6-6 6 2.685 6 6-2.685 6-6 6Zm0-2c2.21 0 4-1.79 4-4s-1.79-4-4-4-4 1.79-4 4 1.79 4 4 4Zm6 10.5-2.939 1.545.561-3.273-2.377-2.317 3.286-.477L18 14l1.47 2.977 3.285.478-2.377 2.318.56 3.272L18 21.5Z" fill="#000"/></svg><svg viewBox="0 0 497 497" id="website" xmlns="http://www.w3.org/2000/svg"><path d="M497 128.5v312c0 11.046-8.954 20-20 20H20c-11.046 0-20-8.954-20-20v-312z" fill="#faf8f8"/><path d="M290.498 294.5c0-23.196-18.804-42-42-42a41.823 41.823 0 0 0-19.482 4.782c-13.386 7.021-19.327 21.053-19.327 37.218 0 23.196 15.613 36.457 38.809 36.457 16.214 0 30.282-3.645 37.282-17.099a41.814 41.814 0 0 0 4.718-19.358z" fill="#dc4955"/><path d="M286.468 312.47c-6.73 14.21-21.2 24.03-37.97 24.03-23.2 0-42-18.8-42-42 0-16.77 9.82-31.24 24.03-37.97-2.59 5.45-4.03 11.54-4.03 17.97 0 23.2 18.8 42 42 42 6.43 0 12.52-1.44 17.97-4.03z" fill="#d82f3c"/><path d="M429.496 294.5c0-23.196-18.804-42-42-42a41.823 41.823 0 0 0-19.482 4.782c-13.386 7.021-19.327 21.053-19.327 37.218 0 23.196 15.613 36.457 38.809 36.457 16.214 0 30.282-3.645 37.282-17.099a41.814 41.814 0 0 0 4.718-19.358z" fill="#b7e546"/><path d="M425.466 312.47c-6.73 14.21-21.2 24.03-37.97 24.03-23.2 0-42-18.8-42-42 0-16.77 9.82-31.24 24.03-37.97-2.59 5.45-4.03 11.54-4.03 17.97 0 23.2 18.8 42 42 42 6.43 0 12.52-1.44 17.97-4.03z" fill="#abd641"/><path d="M497 148.5v-20l-276.011-12.798L0 128.5v312c0 11.046 8.954 20 20 20h15c-8.28 0-15-6.72-15-15v-291a6 6 0 0 1 6-6z" fill="#f0e9e6"/><path d="M497 56.5V129H0V56.5c0-11.046 8.954-20 20-20h457c11.046 0 20 8.954 20 20z" fill="#5d748a"/><g fill="#3f597d"><path d="M227.758 108.5c-8.255 0-14.947-6.716-14.947-15s6.692-15 14.947-15h208.315c8.255 0 14.947 6.716 14.947 15s-6.692 15-14.947 15z"/><ellipse cx="160.869" cy="93.5" rx="14.947" ry="15"/><path d="m171.361 104.184 12.874-12.869-13.139 1.179zM150.592 82.608l12.562-12.516-2.693 10.408z"/><ellipse cx="98.034" cy="93.5" rx="14.947" ry="15"/><path d="m108.553 104.157 12.382-12.499-12.674.836zM87.757 82.608l12.371-12.459L97.626 80.5z"/><ellipse cx="32.947" cy="93.5" rx="14.947" ry="15"/><path d="M43.769 103.846 56.49 90.66l-13.139 1.381zM22.67 82.608 34.292 70.57l-1.753 9.93z"/></g><ellipse cx="173.849" cy="80.5" fill="#b7e546" rx="14.947" ry="15"/><path d="m217.514 82.577 12.971-12.991-3.025 14.276zM446.83 103.915l13.149-13.179-10.185 3.381z" fill="#3f597d"/><ellipse cx="110.946" cy="80.5" fill="#ffbf54" rx="14.947" ry="15"/><ellipse cx="45.495" cy="80.5" fill="#dc4955" rx="14.947" ry="15"/><path d="M240.737 95.5c-8.255 0-14.947-6.716-14.947-15s6.692-15 14.947-15h208.315c8.255 0 14.947 6.716 14.947 15s-6.692 15-14.947 15z" fill="#faf8f8"/><path d="m135.893 215 226.628 2c5.523 0 10-4.477 10-10l3.479-7v-30c0-5.523-4.477-10-10-10H142l-6.107 5c-5.523 0-10 4.477-10 10v30c0 5.523 4.477 10 10 10z" fill="#aad8de"/><path d="M376 200v10c0 5.523-4.477 10-10 10H132c-5.523 0-10-4.477-10-10v-40c0-5.523 4.477-10 10-10h10v33a7 7 0 0 0 7 7z" fill="#94ccd4"/><path d="M151.5 294.5c0-23.196-18.804-42-42-42a41.823 41.823 0 0 0-19.482 4.782c-13.386 7.021-19.327 21.053-19.327 37.218 0 23.196 15.613 36.457 38.809 36.457 16.214 0 30.282-3.645 37.282-17.099A41.814 41.814 0 0 0 151.5 294.5z" fill="#ffbf54"/><path d="M147.47 312.47c-6.73 14.21-21.2 24.03-37.97 24.03-23.2 0-42-18.8-42-42 0-16.77 9.82-31.24 24.03-37.97-2.59 5.45-4.03 11.54-4.03 17.97 0 23.2 18.8 42 42 42 6.43 0 12.52-1.44 17.97-4.03z" fill="#ffa442"/><path d="M149.5 374h-70a7.5 7.5 0 0 1 0-15h70a7.5 7.5 0 0 1 0 15zM149.5 404h-80a7.5 7.5 0 0 1 0-15h80a7.5 7.5 0 0 1 0 15zM149.5 434h-80a7.5 7.5 0 0 1 0-15h80a7.5 7.5 0 0 1 0 15zM288.5 374h-70a7.5 7.5 0 0 1 0-15h70c4.143 0 7.5 3.358 7.5 7.5s-3.357 7.5-7.5 7.5zM288.5 404h-80a7.5 7.5 0 0 1 0-15h80c4.143 0 7.5 3.358 7.5 7.5s-3.357 7.5-7.5 7.5zM288.5 434h-80a7.5 7.5 0 0 1 0-15h80c4.143 0 7.5 3.358 7.5 7.5s-3.357 7.5-7.5 7.5zM427.5 374h-70c-4.143 0-7.5-3.358-7.5-7.5s3.357-7.5 7.5-7.5h70c4.143 0 7.5 3.358 7.5 7.5s-3.357 7.5-7.5 7.5zM427.5 404h-80c-4.143 0-7.5-3.358-7.5-7.5s3.357-7.5 7.5-7.5h80c4.143 0 7.5 3.358 7.5 7.5s-3.357 7.5-7.5 7.5zM427.5 434h-80c-4.143 0-7.5-3.358-7.5-7.5s3.357-7.5 7.5-7.5h80c4.143 0 7.5 3.358 7.5 7.5s-3.357 7.5-7.5 7.5z" fill="#f0e9e6"/></svg></svg>