<svg width="124" height="124" viewBox="0 0 124 124" fill="none" xmlns="http://www.w3.org/2000/svg">
<g clip-path="url(#clip0_62_81)">
<path d="M121.5 62C121.5 94.8609 94.8609 121.5 62 121.5C29.1391 121.5 2.5 94.8609 2.5 62C2.5 29.1391 29.1391 2.5 62 2.5C94.8609 2.5 121.5 29.1391 121.5 62Z" fill="#CFDBE8" stroke="#2F5572" stroke-width="5"/>
<path d="M45.5301 83.5371C43.8651 83.5371 42.9321 81.5181 44.0021 80.2481L60.0001 61.2701V33.1741C60.0001 32.0701 60.8961 31.1741 62.0001 31.1741C63.1041 31.1741 64.0001 32.0701 64.0001 33.1741V62.0001C64.0001 62.4721 63.8331 62.9281 63.5291 63.2891L47.0611 82.8261C46.6651 83.2951 46.1001 83.5371 45.5301 83.5371Z" fill="#2F5572"/>
<path d="M64.0671 0V14.37C64.0671 15.511 63.1421 16.437 62.0001 16.437C60.8581 16.437 59.9331 15.512 59.9331 14.37V0" fill="#2F5572"/>
<path d="M0 59.9331H14.37C15.511 59.9331 16.437 60.8581 16.437 62.0001C16.437 63.1421 15.512 64.0671 14.37 64.0671H0" fill="#2F5572"/>
<path d="M59.9331 124V109.63C59.9331 108.489 60.8581 107.563 62.0001 107.563C63.1421 107.563 64.0671 108.488 64.0671 109.63V124" fill="#2F5572"/>
<path d="M124 64.0671H109.63C108.489 64.0671 107.563 63.1421 107.563 62.0001C107.563 60.8581 108.488 59.9331 109.63 59.9331H124" fill="#2F5572"/>
</g>
<defs>
<clipPath id="clip0_62_81">
<rect width="124" height="124" fill="white"/>
</clipPath>
</defs>
</svg>
