<svg width="1037" height="148" viewBox="0 0 1037 148" fill="none" xmlns="http://www.w3.org/2000/svg">
<path d="M271.5 20.5V9L333.5 9.5V20.5H308.5V53H296.5V20.5H271.5Z" fill="#281477"/>
<path d="M340.5 53V9.5H391.5C407 9.5 410.5 36.5 391.5 36.5H351.5V53H340.5Z" fill="#281477"/>
<path d="M410.5 42.5V20C410.5 14 414 9.5 421.5 9.5H460.5C467.5 9.5 471.5 14 471.5 20.5V42.5C471.5 49 469.5 53 462 53H420.5C414.5 53 410.5 49 410.5 42.5Z" fill="#281477"/>
<path d="M271.5 20.5V9L333.5 9.5V20.5H308.5V53H296.5V20.5H271.5Z" stroke="#281477"/>
<path d="M340.5 53V9.5H391.5C407 9.5 410.5 36.5 391.5 36.5H351.5V53H340.5Z" stroke="#281477"/>
<path d="M410.5 42.5V20C410.5 14 414 9.5 421.5 9.5H460.5C467.5 9.5 471.5 14 471.5 20.5V42.5C471.5 49 469.5 53 462 53H420.5C414.5 53 410.5 49 410.5 42.5Z" stroke="#281477"/>
<path d="M351.5 26.5V19.5H392.5V26.5H351.5Z" fill="white" stroke="#281477"/>
<path d="M421.5 41.5V20.5H460.5V41.5H421.5Z" fill="white" stroke="#281477"/>
<path d="M50 9.17661H1V20.1766H51.5V26.1753H1V35.1753H51.5V41.1766H1V52.6766H51.5C58.5 52.6766 62 50.1754 62 43.1766V22.6766C62 13.6754 60.3637 9.34279 50 9.17661Z" fill="#281477"/>
<path d="M68.5 26.1753V52.6766H80V20.1764L120 20.1766V52.6766H131V9.17661C131 9.17661 89 9.17546 82 9.17556C75 9.17565 68.5 17.4999 68.5 26.1753Z" fill="#281477"/>
<path d="M148 9.17563L198.5 9.17661V20.1764H148V26.1753H198.5V35.1753H148V41.6763H198.5V52.6766L148 52.1766C140 52.6766 137.5 49.1754 137.5 41.6763V18.6753C137.5 13.1753 140.5 9.17661 148 9.17563Z" fill="#281477"/>
<path d="M205 52.6766L205.5 9.17661H217.5V26.1753L244 9.17563L264.5 9.17661L230 31.1753L264.5 52.6766H244L217.5 35.1753V52.6766H205Z" fill="#281477"/>
<path d="M50 9.17661H1V20.1766H51.5V26.1753H1V35.1753H51.5V41.1766H1V52.6766H51.5C58.5 52.6766 62 50.1754 62 43.1766V22.6766C62 13.6754 60.3637 9.34279 50 9.17661Z" stroke="#281477"/>
<path d="M68.5 26.1753V52.6766H80V20.1764L120 20.1766V52.6766H131V9.17661C131 9.17661 89 9.17546 82 9.17556C75 9.17565 68.5 17.4999 68.5 26.1753Z" stroke="#281477"/>
<path d="M148 9.17563L198.5 9.17661V20.1764H148V26.1753H198.5V35.1753H148V41.6763H198.5V52.6766L148 52.1766C140 52.6766 137.5 49.1754 137.5 41.6763V18.6753C137.5 13.1753 140.5 9.17661 148 9.17563Z" stroke="#281477"/>
<path d="M205 52.6766L205.5 9.17661H217.5V26.1753L244 9.17563L264.5 9.17661L230 31.1753L264.5 52.6766H244L217.5 35.1753V52.6766H205Z" stroke="#281477"/>
<path d="M843 32.5L825 11H838.5L854.5 29.5V11H866.5V29.5L882.5 11H896.5L878 32.5L896.5 54.5H883.5L866.5 37V54.5H854.5V37L837.5 54.5H825L843 32.5Z" fill="#00A4EF" stroke="#00A4EF"/>
<path d="M782 15.4999L760 53.98H772L778.5 42.9801H801L807 53.98H820L810 36L798 15.4999C794.5 10.1935 786 10.1939 782 15.4999Z" fill="#00A4EF" stroke="#00A4EF"/>
<path d="M790 23L783 34H797L790 23Z" fill="white" stroke="white"/>
<path d="M626 52V9H637V25H678V9H689V52H678V36H637V52H626Z" fill="#00A4EF" stroke="#00A4EF"/>
<path d="M698 21.5V10L760 10.5V21.5H735V54H723V21.5H698Z" fill="#00A4EF" stroke="#73C4F4"/>
<path d="M556 42V19.5C556 13.5 559.5 9 567 9H606C613 9 617 13.5 617 20V42C617 48.5 615 52.5 607.5 52.5H566C560 52.5 556 48.5 556 42Z" fill="#00A4EF" stroke="#00A4EF"/>
<path d="M567 41V20H606V41H567Z" fill="white" stroke="#00A4EF"/>
<path d="M481 19.3091V51.9282H491.5L492 20.9282C500.761 39.7381 506 52.4282 512.5 52.4282H516.5C522.5 52.4282 528.5 34.9282 536 20.9282V52.4282H546.5C546.5 52.4282 547.5 23.3094 546.5 19.3091C545.5 15.3088 543.21 12.0037 539.5 10.4282C528.487 7.37598 524 20.9277 514 41.9282C504.5 21.8172 501.779 9.01692 488.5 10.4277C484.5 10.8526 481.5 14.8091 481 19.3091Z" fill="#00A4EF" stroke="#00A4EF"/>
<path d="M233 134.5V91H284C299.5 91 303 118 284 118H244V134.5H233Z" fill="#00A4EF" stroke="#00A4EF"/>
<path d="M304 123V100.5C304 94.5 307.5 90 315 90H354C361 90 365 94.5 365 101V123C365 129.5 363 133.5 355.5 133.5H314C308 133.5 304 129.5 304 123Z" fill="#00A4EF" stroke="#00A4EF"/>
<path d="M443 113V104H469V113H443Z" fill="#00A4EF" stroke="#00A4EF"/>
<path d="M374.031 125.5V91.5H384.531V124L418.531 93.5C426.531 88 434.031 92.5 434.031 100V134H424.031V101L390.031 132C382.379 137.646 373.402 132.345 374.031 125.5Z" fill="#00A4EF"/>
<path d="M388.031 83V74H421.031V83H388.031Z" fill="#00A4EF"/>
<path d="M374.031 125.5V91.5H384.531V124L418.531 93.5C426.531 88 434.031 92.5 434.031 100V134H424.031V101L390.031 132C382.379 137.646 373.402 132.345 374.031 125.5Z" stroke="#00A4EF"/>
<path d="M388.031 83V74H421.031V83H388.031Z" stroke="#00A4EF"/>
<path d="M315 122V101H354V122H315Z" fill="white" stroke="#73C4F4"/>
<path d="M244 107.5V100.5H285V107.5H244Z" fill="white" stroke="#73C4F4"/>
<path d="M164 101.5V90L226 90.5V101.5H201V134H189V101.5H164Z" fill="#00A4EF" stroke="#00A4EF"/>
<path d="M107 90H157V101H107V122.5H157V133.5H107C101 133.5 95 131 95 123.5V101C95 94.5 99.5 90 107 90Z" fill="#00A4EF" stroke="#00A4EF"/>
<path d="M621 135.5V92H672C687.5 92 691 119 672 119H632V135.5H621Z" fill="#281477" stroke="#281477"/>
<path d="M632 109V102H673V109H632Z" fill="white" stroke="#281477"/>
<path d="M563 91H612V102H561.5V108H612V117H561.5V123H612V134.5H561.5C554.5 134.5 551 131.999 551 125V104.5C551 95.4988 552.636 91.1662 563 91Z" fill="#281477" stroke="#281477"/>
<path d="M766.031 126.441V92.4406H776.531V124.941L810.531 94.4406C818.531 88.9406 826.031 93.4406 826.031 100.941V134.941H816.031V101.941L782.031 132.941C774.379 138.587 765.402 133.286 766.031 126.441Z" fill="#281477" stroke="#281477"/>
<path d="M847 91H897V102H847V123.5H897V134.5H847C841 134.5 835 132 835 124.5V102C835 95.5 839.5 91 847 91Z" fill="#281477" stroke="#281477"/>
<path d="M492 92H542V103H492V124.5H542V135.5H492C486 135.5 480 133 480 125.5V103C480 96.5 484.5 92 492 92Z" fill="#281477" stroke="#281477"/>
<path d="M694 135V92H745.5C756.5 94.5 759 104.5 754 113.5C760.5 122 755.5 135 745.5 135H694Z" fill="#281477" stroke="#281477"/>
<path d="M705 125V119H744V125H705Z" fill="white" stroke="white"/>
<path d="M705 109V103H744V109H705Z" fill="white" stroke="white"/>
<path d="M995.75 12H949.5L931 82.9167H955.667L943.333 135.333L1023.5 49H986.5L995.75 12Z" fill="#FFC107" stroke="black" stroke-width="2" stroke-linecap="round" stroke-linejoin="round"/>
<path d="M964.917 33.5833L958.75 58.2499Z" fill="#FFC107"/>
<path d="M964.917 33.5833L958.75 58.2499" stroke="black" stroke-width="2" stroke-linecap="round"/>
</svg>
