<svg width="898" height="128" viewBox="0 0 898 128" fill="none" xmlns="http://www.w3.org/2000/svg">
<path d="M271.5 12.5V1L333.5 1.5V12.5H308.5V45H296.5V12.5H271.5Z" fill="#281477"/>
<path d="M340.5 45V1.5H391.5C407 1.5 410.5 28.5 391.5 28.5H351.5V45H340.5Z" fill="#281477"/>
<path d="M410.5 34.5V12C410.5 6 414 1.5 421.5 1.5H460.5C467.5 1.5 471.5 6 471.5 12.5V34.5C471.5 41 469.5 45 462 45H420.5C414.5 45 410.5 41 410.5 34.5Z" fill="#281477"/>
<path d="M271.5 12.5V1L333.5 1.5V12.5H308.5V45H296.5V12.5H271.5Z" stroke="#281477"/>
<path d="M340.5 45V1.5H391.5C407 1.5 410.5 28.5 391.5 28.5H351.5V45H340.5Z" stroke="#281477"/>
<path d="M410.5 34.5V12C410.5 6 414 1.5 421.5 1.5H460.5C467.5 1.5 471.5 6 471.5 12.5V34.5C471.5 41 469.5 45 462 45H420.5C414.5 45 410.5 41 410.5 34.5Z" stroke="#281477"/>
<path d="M351.5 18.5V11.5H392.5V18.5H351.5Z" fill="white" stroke="#281477"/>
<path d="M421.5 33.5V12.5H460.5V33.5H421.5Z" fill="white" stroke="#281477"/>
<path d="M50 1.17593H1V12.1759H51.5V18.1747H1V27.1747H51.5V33.1759H1V44.6759H51.5C58.5 44.6759 62 42.1747 62 35.1759V14.6759C62 5.67471 60.3637 1.34211 50 1.17593Z" fill="#281477"/>
<path d="M68.5 15.6748V44.6759H80V12.1757L120 12.1759V44.6759H131V1.17593C131 1.17593 85.8908 0.780092 79 1.17593C72.1092 1.57176 68 7.1748 68.5 15.6748Z" fill="#281477"/>
<path d="M148 1.17495L198.5 1.17593V12.1757H148V18.1747H198.5V27.1747H148V33.6756H198.5V44.6759L148 44.1759C140 44.6759 137.5 41.1747 137.5 33.6756V10.6747C137.5 5.17466 140.5 1.17593 148 1.17495Z" fill="#281477"/>
<path d="M205 44.6759L205.5 1.17593H217.5V18.1747L244 1.17495L264.5 1.17593L230 23.1747L264.5 44.6759H244L217.5 27.1747V44.6759H205Z" fill="#281477"/>
<path d="M50 1.17593H1V12.1759H51.5V18.1747H1V27.1747H51.5V33.1759H1V44.6759H51.5C58.5 44.6759 62 42.1747 62 35.1759V14.6759C62 5.67471 60.3637 1.34211 50 1.17593Z" stroke="#281477"/>
<path d="M68.5 15.6748V44.6759H80V12.1757L120 12.1759V44.6759H131V1.17593C131 1.17593 85.8908 0.780092 79 1.17593C72.1092 1.57176 68 7.1748 68.5 15.6748Z" stroke="#281477"/>
<path d="M148 1.17495L198.5 1.17593V12.1757H148V18.1747H198.5V27.1747H148V33.6756H198.5V44.6759L148 44.1759C140 44.6759 137.5 41.1747 137.5 33.6756V10.6747C137.5 5.17466 140.5 1.17593 148 1.17495Z" stroke="#281477"/>
<path d="M205 44.6759L205.5 1.17593H217.5V18.1747L244 1.17495L264.5 1.17593L230 23.1747L264.5 44.6759H244L217.5 27.1747V44.6759H205Z" stroke="#281477"/>
<path d="M843 24.5L825 3H838.5L854.5 21.5V3H866.5V21.5L882.5 3H896.5L878 24.5L896.5 46.5H883.5L866.5 29V46.5H854.5V29L837.5 46.5H825L843 24.5Z" fill="#73C4F4" stroke="#73C4F4"/>
<path d="M782 7.49989L760 45.98H772L778.5 34.98H801L807 45.98H818.5L796.5 7.5C793 2.19361 786 2.19382 782 7.49989Z" fill="#73C4F4" stroke="#73C4F4"/>
<path d="M790 15L783 26H797L790 15Z" fill="white" stroke="white"/>
<path d="M626 44V1H637V17H678V1H689V44H678V28H637V44H626Z" fill="#73C4F4" stroke="#73C4F4"/>
<path d="M698 13.5V2L760 2.5V13.5H735V46H723V13.5H698Z" fill="#73C4F4" stroke="#73C4F4"/>
<path d="M556 34V11.5C556 5.5 559.5 1 567 1H606C613 1 617 5.5 617 12V34C617 40.5 615 44.5 607.5 44.5H566C560 44.5 556 40.5 556 34Z" fill="#73C4F4" stroke="#73C4F4"/>
<path d="M567 33V12H606V33H567Z" fill="white" stroke="#73C4F4"/>
<path d="M481 11.4924V44.1116H491.5L492 13.1115C500.761 31.9215 506 44.6116 512.5 44.6116H516.5C522.5 44.6116 528.5 27.1115 536 13.1115V44.6116H546.5C546.5 44.6116 547.5 15.4927 546.5 11.4924C545.5 7.49215 543.21 4.187 539.5 2.61155C528.487 -0.440674 524 13.111 514 34.1116C504.5 14.0005 501.779 1.20027 488.5 2.61101C484.5 3.03597 481.5 6.99245 481 11.4924Z" fill="#73C4F4" stroke="#73C4F4"/>
<path d="M233 126.5V83H284C299.5 83 303 110 284 110H244V126.5H233Z" fill="#73C4F4" stroke="#73C4F4"/>
<path d="M304 115V92.5C304 86.5 307.5 82 315 82H354C361 82 365 86.5 365 93V115C365 121.5 363 125.5 355.5 125.5H314C308 125.5 304 121.5 304 115Z" fill="#73C4F4" stroke="#73C4F4"/>
<path d="M443 105V96H469V105H443Z" fill="#73C4F4" stroke="#73C4F4"/>
<path d="M374.031 117.5V83.5H384.531V116L418.531 85.5C426.531 80 434.031 84.5 434.031 92V126H424.031V93L390.031 124C382.379 129.646 373.402 124.345 374.031 117.5Z" fill="#73C4F4"/>
<path d="M388.031 75V66H421.031V75H388.031Z" fill="#73C4F4"/>
<path d="M374.031 117.5V83.5H384.531V116L418.531 85.5C426.531 80 434.031 84.5 434.031 92V126H424.031V93L390.031 124C382.379 129.646 373.402 124.345 374.031 117.5Z" stroke="#73C4F4"/>
<path d="M388.031 75V66H421.031V75H388.031Z" stroke="#73C4F4"/>
<path d="M315 114V93H354V114H315Z" fill="white" stroke="#73C4F4"/>
<path d="M244 99.5V92.5H285V99.5H244Z" fill="white" stroke="#73C4F4"/>
<path d="M164 93.5V82L226 82.5V93.5H201V126H189V93.5H164Z" fill="#73C4F4" stroke="#73C4F4"/>
<path d="M107 82H157V93H107V114.5H157V125.5H107C101 125.5 95 123 95 115.5V93C95 86.5 99.5 82 107 82Z" fill="#73C4F4" stroke="#73C4F4"/>
<path d="M621 127.5V84H672C687.5 84 691 111 672 111H632V127.5H621Z" fill="#281477" stroke="#281477"/>
<path d="M632 101V94H673V101H632Z" fill="white" stroke="#281477"/>
<path d="M563 83H612V94H561.5V100H612V109H561.5V115H612V126.5H561.5C554.5 126.5 551 123.999 551 117V96.5C551 87.4988 552.636 83.1662 563 83Z" fill="#281477" stroke="#281477"/>
<path d="M766.031 118.441V84.4406H776.531V116.941L810.531 86.4406C818.531 80.9406 826.031 85.4406 826.031 92.9406V126.941H816.031V93.9406L782.031 124.941C774.379 130.587 765.402 125.286 766.031 118.441Z" fill="#281477" stroke="#281477"/>
<path d="M847 83H897V94H847V115.5H897V126.5H847C841 126.5 835 124 835 116.5V94C835 87.5 839.5 83 847 83Z" fill="#281477" stroke="#281477"/>
<path d="M492 84H542V95H492V116.5H542V127.5H492C486 127.5 480 125 480 117.5V95C480 88.5 484.5 84 492 84Z" fill="#281477" stroke="#281477"/>
<path d="M694 127V84H745.5C756.5 86.5 759 96.5 754 105.5C760.5 114 755.5 127 745.5 127H694Z" fill="#281477" stroke="#281477"/>
<path d="M705 117V111H744V117H705Z" fill="white" stroke="white"/>
<path d="M705 101V95H744V101H705Z" fill="white" stroke="white"/>
</svg>
