<svg width="512" height="512" viewBox="0 0 512 512" fill="none" xmlns="http://www.w3.org/2000/svg">
<ellipse cx="256" cy="228.5" rx="152" ry="147.5" fill="#2F5572"/>
<g clip-path="url(#clip0_61_43)">
<path d="M256.426 158.895C215.051 158.895 181.391 192.555 181.391 233.93C181.391 275.305 215.051 308.965 256.426 308.965C297.801 308.965 331.461 275.305 331.461 233.93C331.461 192.555 297.801 158.895 256.426 158.895ZM256.426 278.961C231.598 278.961 211.395 258.762 211.395 233.93C211.395 209.102 231.598 188.898 256.426 188.898C281.258 188.898 301.457 209.102 301.457 233.93C301.457 258.762 281.258 278.961 256.426 278.961Z" fill="#CFDBE8"/>
<path d="M256.426 218.902C248.141 218.902 241.398 225.645 241.398 233.93C241.398 242.215 248.141 248.957 256.426 248.957C264.711 248.957 271.453 242.215 271.453 233.93C271.453 225.645 264.711 218.902 256.426 218.902Z" fill="#CFDBE8"/>
<path d="M147.882 439.018L147.882 439.017C117.244 410.124 92.8281 375.264 75.3152 335.368C53.5971 285.888 42.5 228.454 42.5 164.562V88.1726L256.426 5.96343L470.352 88.1726V164.562C470.352 228.454 459.254 285.888 437.536 335.368C420.024 375.264 395.604 410.124 364.97 439.018L364.97 439.018C312.573 488.443 260.365 503.171 258.679 503.638L256.426 504.258L254.17 503.637C252.483 503.171 200.275 488.443 147.882 439.018ZM363.584 318.874L368.18 314.278L363.585 309.682L348.998 295.092C357.136 283.005 362.973 269.239 365.878 254.434H386.469H392.969V247.934V217.926V211.426H386.469H365.878C362.974 196.62 357.139 182.854 348.999 170.767L363.585 156.178L368.18 151.582L363.584 146.986L342.37 125.771L337.774 121.175L333.178 125.771L318.588 140.357C306.501 132.219 292.736 126.382 277.93 123.478V102.887V96.3867H271.43H241.426H234.926V102.887V123.478C220.117 126.382 206.35 132.219 194.264 140.357L179.674 125.771L175.078 121.175L170.482 125.771L149.267 146.986L144.671 151.582L149.267 156.178L163.853 170.768C155.715 182.854 149.878 196.62 146.974 211.426H126.383H119.883V217.926V247.934V254.434H126.383H146.974C149.878 269.239 155.715 283.005 163.853 295.092L149.267 309.682L144.671 314.278L149.267 318.874L170.482 340.088L175.078 344.684L179.674 340.089L194.264 325.502C206.35 333.64 220.117 339.478 234.926 342.382V362.973V369.473H241.426H271.43H277.93V362.973V342.382C292.736 339.477 306.501 333.64 318.588 325.502L333.178 340.089L337.774 344.684L342.37 340.088L363.584 318.874Z" fill="#CFDBE8" stroke="#2F5572" stroke-width="13"/>
</g>
<defs>
<clipPath id="clip0_61_43">
<rect width="512" height="512.001" fill="white"/>
</clipPath>
</defs>
</svg>
