<svg width="512" height="512" viewBox="0 0 512 512" fill="none" xmlns="http://www.w3.org/2000/svg">
<ellipse cx="256" cy="228.5" rx="152" ry="147.5" fill="#2F5572"/>
<g clip-path="url(#clip0_60_14)">
<path d="M256.426 158.895C215.051 158.895 181.391 192.555 181.391 233.93C181.391 275.305 215.051 308.965 256.426 308.965C297.801 308.965 331.461 275.305 331.461 233.93C331.461 192.555 297.801 158.895 256.426 158.895ZM256.426 278.961C231.598 278.961 211.395 258.762 211.395 233.93C211.395 209.102 231.598 188.898 256.426 188.898C281.258 188.898 301.457 209.102 301.457 233.93C301.457 258.762 281.258 278.961 256.426 278.961Z" fill="#CFDBE8"/>
<path d="M256.426 218.902C248.141 218.902 241.398 225.645 241.398 233.93C241.398 242.215 248.141 248.957 256.426 248.957C264.711 248.957 271.453 242.215 271.453 233.93C271.453 225.645 264.711 218.902 256.426 218.902Z" fill="#CFDBE8"/>
<path d="M146.167 440.836L146.166 440.836C115.277 411.705 90.6691 376.566 73.026 336.373C51.1469 286.526 40 228.741 40 164.562V86.4551L256.426 3.28519L472.852 86.4551V164.562C472.852 228.741 461.705 286.526 439.826 336.373C422.182 376.566 397.571 411.705 366.685 440.836L369.43 443.746L366.685 440.836C313.931 490.599 261.343 505.494 259.352 506.046C259.35 506.047 259.348 506.047 259.346 506.048L256.426 506.851L253.504 506.047C251.602 505.521 198.966 490.645 146.167 440.836ZM361.817 317.106L364.645 314.278L361.817 311.449L345.761 295.389C354.704 282.632 360.986 267.873 363.801 251.934H386.469H390.469V247.934V217.926V213.926H386.469H363.801C360.987 197.986 354.707 183.228 345.761 170.47L361.817 154.41L364.645 151.582L361.817 148.754L340.602 127.539L337.774 124.711L334.945 127.538L318.885 143.595C306.128 134.652 291.37 128.369 275.43 125.555V102.887V98.8867H271.43H241.426H237.426V102.887V125.555C221.483 128.369 206.724 134.652 193.966 143.595L177.906 127.538L175.078 124.711L172.25 127.539L151.035 148.754L148.207 151.582L151.035 154.41L167.091 170.47C158.148 183.228 151.865 197.986 149.051 213.926H126.383H122.383V217.926V247.934V251.934H126.383H149.051C151.865 267.873 158.148 282.632 167.091 295.389L151.035 311.449L148.207 314.278L151.035 317.106L172.25 338.321L175.078 341.149L177.906 338.321L193.966 322.264C206.724 331.208 221.483 337.49 237.426 340.305V362.973V366.973H241.426H271.43H275.43V362.973V340.305C291.37 337.49 306.128 331.208 318.885 322.264L334.945 338.321L337.774 341.149L340.602 338.321L361.817 317.106Z" fill="#CFDBE8" stroke="#2F5572" stroke-width="8"/>
</g>
<defs>
<clipPath id="clip0_60_14">
<rect width="512" height="512.001" fill="white"/>
</clipPath>
</defs>
</svg>
