<svg width="512" height="512" viewBox="0 0 512 512" fill="none" xmlns="http://www.w3.org/2000/svg">
<ellipse cx="256" cy="234.5" rx="152" ry="147.5" fill="#CFDBE8"/>
<path d="M256.426 158.895C215.051 158.895 181.391 192.555 181.391 233.93C181.391 275.305 215.051 308.965 256.426 308.965C297.801 308.965 331.461 275.305 331.461 233.93C331.461 192.555 297.801 158.895 256.426 158.895ZM256.426 278.961C231.598 278.961 211.395 258.762 211.395 233.93C211.395 209.102 231.598 188.898 256.426 188.898C281.258 188.898 301.457 209.102 301.457 233.93C301.457 258.762 281.258 278.961 256.426 278.961Z" fill="#2F5572"/>
<path d="M151.999 435.654L151.998 435.652C121.966 407.329 98.0095 373.141 80.8091 333.956C59.4776 285.357 48.5 228.766 48.5 165.562V93.2946L256.426 13.3912L464.352 93.2946V165.562C464.352 228.766 453.374 285.357 432.042 333.956C414.842 373.14 390.882 407.329 360.853 435.653L360.852 435.653C309.432 484.158 258.25 498.531 257.077 498.856L256.426 499.035L255.769 498.854C254.598 498.531 203.417 484.159 151.999 435.654ZM367.827 324.116L376.665 315.278L367.828 306.439L356.66 295.269C363.001 284.937 367.793 273.548 370.708 261.434H386.469H398.969V248.934V218.926V206.426H386.469H370.708C367.794 194.312 363.003 182.923 356.661 172.59L367.828 161.42L376.665 152.581L367.827 143.743L346.612 122.528L337.774 113.69L328.936 122.527L317.765 133.696C307.433 127.355 296.044 122.563 283.93 119.648V103.887V91.3867H271.43H241.426H228.926V103.887V119.647C216.809 122.562 205.419 127.355 195.087 133.696L183.916 122.527L175.077 113.69L166.239 122.528L145.024 143.743L136.187 152.581L145.024 161.42L156.192 172.591C149.851 182.922 145.059 194.311 142.144 206.426H126.383H113.883V218.926V248.934V261.434H126.383H142.144C145.059 273.548 149.851 284.937 156.192 295.269L145.024 306.439L136.187 315.278L145.024 324.116L166.239 345.331L175.077 354.169L183.916 345.332L195.087 334.164C205.419 340.505 216.809 345.297 228.926 348.212V363.973V376.473H241.426H271.43H283.93V363.973V348.212C296.044 345.297 307.433 340.504 317.765 334.164L328.936 345.332L337.774 354.169L346.612 345.331L367.827 324.116Z" fill="#CFDBE8" stroke="#2F5572" stroke-width="25"/>
</svg>
